<?xml version="1.0" encoding="UTF-8"?>
<!-- Generator: Adobe Illustrator 16.0.0, SVG Export Plug-In . SVG Version: 6.00 Build 0)  -->
<!DOCTYPE svg PUBLIC "-//W3C//DTD SVG 1.1//EN" "http://www.w3.org/Graphics/SVG/1.1/DTD/svg11.dtd">
<svg version="1.1" id="Layer_1" xmlns="http://www.w3.org/2000/svg" xmlns:xlink="http://www.w3.org/1999/xlink" x="0px" y="0px" width="295.583px" height="182.476px" viewBox="0 0 295.583 182.476" enable-background="new 0 0 295.583 182.476" xml:space="preserve">
<g>
	<g>
		<path fill="#F27321" d="M60.929,101.654c0,0,170.056-11.41,174.659,14.715c0.885,7.065-1.353,12.25-5.573,16.506h50.651    C280.667,59.49,221.176,0,147.792,0S14.917,59.49,14.917,132.875h127.39C160.201,126.878,172.879,115.215,60.929,101.654z"/>
	</g>
	<g>
		<path fill="#F27321" d="M60.929,101.654c0,0,170.056-11.41,174.659,14.715c0.885,7.065-1.353,12.25-5.573,16.506h50.651    C280.667,59.49,221.176,0,147.792,0S14.917,59.49,14.917,132.875h127.39C160.201,126.878,172.879,115.215,60.929,101.654z"/>
	</g>
	<g>
		<g>
			<path fill="#F27321" d="M17.499,146.933C7.523,146.933,0,154.572,0,164.705c0,10.131,7.503,17.771,17.454,17.771     c10.002,0,17.545-7.64,17.545-17.771C34.999,154.572,27.476,146.933,17.499,146.933z M28.589,164.705     c0,6.793-4.664,11.724-11.09,11.724c-6.426,0-11.09-4.931-11.09-11.724c0-6.686,4.768-11.727,11.09-11.727     C23.822,152.979,28.589,158.02,28.589,164.705z"/>
			<polygon fill="#F27321" points="33.762,153.479 42.338,153.479 42.338,181.887 48.612,181.887 48.612,153.479 57.144,153.479      57.144,147.522 33.762,147.522    "/>
			<path fill="#F27321" d="M80.15,157.625c0-6.42-4.079-10.103-11.191-10.103h-9.377v34.364h6.274v-13.795h3.313l7.17,13.795h7.054     l-8.252-15.224C78.266,165.036,80.15,161.703,80.15,157.625z M73.695,157.67c0,3.182-1.461,4.602-4.736,4.602h-3.103v-8.884     h2.875C73.131,153.388,73.695,155.677,73.695,157.67z"/>
			<path fill="#F27321" d="M100.044,146.933c-9.977,0-17.5,7.64-17.5,17.772c0,10.131,7.503,17.771,17.454,17.771     c10.002,0,17.545-7.64,17.545-17.771C117.543,154.572,110.02,146.933,100.044,146.933z M100.044,176.429     c-6.426,0-11.09-4.931-11.09-11.724c0-6.686,4.768-11.727,11.09-11.727c6.323,0,11.09,5.041,11.09,11.727     C111.134,171.498,106.47,176.429,100.044,176.429z"/>
		</g>
		<g>
			<path fill="#F27321" d="M146.649,177.547c-1.407,1.089-5.491,3.631-10.846,3.631c-8.259,0-13.614-5.945-13.614-13.978     c0-10.573,9.031-18.969,19.06-18.969c4.765,0,7.805,1.951,9.258,3.313l-1.725,3.268c-1.044-0.998-3.812-3.132-8.032-3.132     c-7.896,0-14.704,6.717-14.704,15.112c0,6.263,3.948,10.937,10.438,10.937c4.81,0,8.35-2.632,9.575-3.54L146.649,177.547z"/>
		</g>
		<g>
			<path fill="#F27321" d="M157.675,170.286l-5.536,10.302h-3.812l17.199-31.766h3.722l6.58,31.766h-3.676l-2.088-10.302H157.675z      M166.751,152.86l-7.442,14.249h10.211L166.751,152.86z"/>
		</g>
		<g>
			<path fill="#F27321" d="M197.247,173.553l15.248-24.73h4.991l-5.31,31.766h-3.539l4.447-26.412l-14.477,23.508h-3.857     l-6.807-23.553l-4.447,26.457h-3.539l5.309-31.766h4.72L197.247,173.553z"/>
		</g>
		<g>
			<path fill="#F27321" d="M224.655,148.822h3.676l-5.309,31.766h-3.676L224.655,148.822z"/>
		</g>
		<g>
			<path fill="#F27321" d="M235.456,148.822h3.676l13.16,25.957l4.356-25.957h3.631l-5.31,31.766h-3.631l-13.205-25.867     l-4.311,25.867h-3.676L235.456,148.822z"/>
		</g>
		<g>
			<path fill="#F27321" d="M281.879,148.231c8.259,0,13.704,6.081,13.704,14.067c0,10.483-8.939,18.879-19.241,18.879     c-8.213,0-13.658-5.9-13.658-13.978C262.684,156.627,271.624,148.231,281.879,148.231z M276.978,177.729     c7.851,0,14.749-6.535,14.749-15.021c0-6.353-4.176-11.027-10.393-11.027c-7.896,0-14.794,6.626-14.794,15.066     C266.541,173.145,270.715,177.729,276.978,177.729z"/>
		</g>
	</g>
</g>
</svg>